<svg xmlns="http://www.w3.org/2000/svg" viewBox="0 0 807.88 131.94"><title>h-container</title><rect x="2.98" y="9.94" width="797" height="115" style="fill:#292929"/><path d="M2.88,46.57,0,12.28a1,1,0,0,1,.15-.62L4.67,4.45A1,1,0,0,1,5.58,4L26,4.94H26l24.88,3h.17L74.92,7h.13l39.87,3.54a1,1,0,0,1,.22,2L4.2,47.45A1,1,0,0,1,2.88,46.57Z" style="fill:#292929"/><path d="M2.91,86.12,0,118.73a.78.78,0,0,0,.08.4l2.72,5.45a.77.77,0,0,0,.59.41l28.52,3h.15l33.87-3H66l47.89,3H114l57-4.59a.74.74,0,0,0,.09-1.47L3.81,85.46A.74.74,0,0,0,2.91,86.12Z" style="fill:#292929"/><path d="M626,125.11l70.6,6.8a.85.85,0,0,0,.64-.21l7.22-6.31a.84.84,0,0,1,1-.06l9.23,6.46a.89.89,0,0,0,.5.15l84.38-1a.83.83,0,0,0,.59-.25l7.4-7.4a.87.87,0,0,0,.22-.84L802,102.09a.77.77,0,0,1,0-.3l2-26.49a.87.87,0,0,0-.21-.62l-6.44-7.37a.83.83,0,0,1-.17-.83L802,52a.65.65,0,0,0,0-.2l3-36.7a.85.85,0,0,1,.12-.37l2.59-4.32a.85.85,0,0,0-.07-1L800.28.32a.84.84,0,0,0-.77-.31L777.18,2.92a.8.8,0,0,0-.36.14l-8.6,5.73a.85.85,0,0,1-.52.14L683,5h-.09l-159.1,7.76a.85.85,0,0,0-.21,1.67L679.7,62.55a.85.85,0,0,1,.37,1.39l-54.6,59.74A.86.86,0,0,0,626,125.11Z" style="fill:#292929"/></svg>