{
    "asset" : {
        "generator" : "Khronos glTF Blender I/O v1.5.17",
        "version" : "2.0"
    },
    "scene" : 0,
    "scenes" : [
        {
            "extras" : {},
            "name" : "Scene",
            "nodes" : [
                0,
                1,
                2,
                3,
                4,
                5,
                6
            ]
        }
    ],
    "nodes" : [
        {
            "name" : "2D Camera",
            "rotation" : [
                0.5664544105529785,
                0.41433098912239075,
                -0.39663565158843994,
                0.5917259454727173
            ],
            "translation" : [
                39.065391540527344,
                3.385486602783203,
                -5.278090000152588
            ]
        },
        {
            "mesh" : 0,
            "name" : "Tree 1",
            "scale" : [
                0.16642960906028748,
                0.16642960906028748,
                0.16642960906028748
            ],
            "translation" : [
                0,
                -0.9612826108932495,
                -4.888643264770508
            ]
        },
        {
            "mesh" : 1,
            "name" : "Tree 2",
            "scale" : [
                0.21221256256103516,
                0.21221256256103516,
                0.21221256256103516
            ],
            "translation" : [
                0,
                -1.0444926023483276,
                -9.850311279296875
            ]
        },
        {
            "mesh" : 2,
            "name" : "Tree 3",
            "translation" : [
                0.5442808270454407,
                2.3944125175476074,
                -15.394929885864258
            ]
        },
        {
            "mesh" : 3,
            "name" : "Tree 4",
            "scale" : [
                0.19103582203388214,
                0.19103582203388214,
                0.19103582203388214
            ],
            "translation" : [
                0,
                -0.9677353501319885,
                -20.635278701782227
            ]
        },
        {
            "mesh" : 4,
            "name" : "Tree 5",
            "scale" : [
                0.24647746980190277,
                0.24647746980190277,
                0.24647746980190277
            ],
            "translation" : [
                0,
                -0.9041263461112976,
                -26.442474365234375
            ]
        },
        {
            "mesh" : 5,
            "name" : "Tree 6",
            "scale" : [
                0.2589496970176697,
                0.2589496970176697,
                0.2589496970176697
            ],
            "translation" : [
                0,
                -0.7864431738853455,
                -33.22203826904297
            ]
        }
    ],
    "materials" : [
        {
            "doubleSided" : true,
            "extras" : {},
            "name" : "Colors",
            "pbrMetallicRoughness" : {}
        }
    ],
    "meshes" : [
        {
            "name" : "Cube.018",
            "primitives" : [
                {
                    "attributes" : {
                        "POSITION" : 0,
                        "NORMAL" : 1,
                        "TANGENT" : 2,
                        "TEXCOORD_0" : 3
                    },
                    "indices" : 4,
                    "material" : 0
                }
            ]
        },
        {
            "name" : "Cube.035",
            "primitives" : [
                {
                    "attributes" : {
                        "POSITION" : 5,
                        "NORMAL" : 6,
                        "TANGENT" : 7,
                        "TEXCOORD_0" : 8
                    },
                    "indices" : 9,
                    "material" : 0
                }
            ]
        },
        {
            "name" : "Icosphere.001",
            "primitives" : [
                {
                    "attributes" : {
                        "POSITION" : 10,
                        "NORMAL" : 11,
                        "TANGENT" : 12,
                        "TEXCOORD_0" : 13
                    },
                    "indices" : 14,
                    "material" : 0
                }
            ]
        },
        {
            "name" : "Cube.001",
            "primitives" : [
                {
                    "attributes" : {
                        "POSITION" : 15,
                        "NORMAL" : 16,
                        "TANGENT" : 17,
                        "TEXCOORD_0" : 18
                    },
                    "indices" : 19,
                    "material" : 0
                }
            ]
        },
        {
            "name" : "Cube.039",
            "primitives" : [
                {
                    "attributes" : {
                        "POSITION" : 20,
                        "NORMAL" : 21,
                        "TANGENT" : 22,
                        "TEXCOORD_0" : 23
                    },
                    "indices" : 24,
                    "material" : 0
                }
            ]
        },
        {
            "name" : "Cube.031",
            "primitives" : [
                {
                    "attributes" : {
                        "POSITION" : 25,
                        "NORMAL" : 26,
                        "TANGENT" : 27,
                        "TEXCOORD_0" : 28
                    },
                    "indices" : 29,
                    "material" : 0
                }
            ]
        }
    ],
    "accessors" : [
        {
            "bufferView" : 0,
            "componentType" : 5126,
            "count" : 1512,
            "max" : [
                7.862632751464844,
                34.70751190185547,
                7.897244453430176
            ],
            "min" : [
                -9.1864013671875,
                -1,
                -7.921645641326904
            ],
            "type" : "VEC3"
        },
        {
            "bufferView" : 1,
            "componentType" : 5126,
            "count" : 1512,
            "type" : "VEC3"
        },
        {
            "bufferView" : 2,
            "componentType" : 5126,
            "count" : 1512,
            "type" : "VEC4"
        },
        {
            "bufferView" : 3,
            "componentType" : 5126,
            "count" : 1512,
            "type" : "VEC2"
        },
        {
            "bufferView" : 4,
            "componentType" : 5123,
            "count" : 1548,
            "type" : "SCALAR"
        },
        {
            "bufferView" : 5,
            "componentType" : 5126,
            "count" : 560,
            "max" : [
                5.554339408874512,
                30.41931915283203,
                8.663192749023438
            ],
            "min" : [
                -6.576276779174805,
                -1,
                -11.540159225463867
            ],
            "type" : "VEC3"
        },
        {
            "bufferView" : 6,
            "componentType" : 5126,
            "count" : 560,
            "type" : "VEC3"
        },
        {
            "bufferView" : 7,
            "componentType" : 5126,
            "count" : 560,
            "type" : "VEC4"
        },
        {
            "bufferView" : 8,
            "componentType" : 5126,
            "count" : 560,
            "type" : "VEC2"
        },
        {
            "bufferView" : 9,
            "componentType" : 5123,
            "count" : 660,
            "type" : "SCALAR"
        },
        {
            "bufferView" : 10,
            "componentType" : 5126,
            "count" : 312,
            "max" : [
                0.9335964322090149,
                2.6010892391204834,
                1.8259636163711548
            ],
            "min" : [
                -2.715890884399414,
                -3.5531835556030273,
                -1.8148472309112549
            ],
            "type" : "VEC3"
        },
        {
            "bufferView" : 11,
            "componentType" : 5126,
            "count" : 312,
            "type" : "VEC3"
        },
        {
            "bufferView" : 12,
            "componentType" : 5126,
            "count" : 312,
            "type" : "VEC4"
        },
        {
            "bufferView" : 13,
            "componentType" : 5126,
            "count" : 312,
            "type" : "VEC2"
        },
        {
            "bufferView" : 14,
            "componentType" : 5123,
            "count" : 468,
            "type" : "SCALAR"
        },
        {
            "bufferView" : 15,
            "componentType" : 5126,
            "count" : 312,
            "max" : [
                4.900444507598877,
                36.68704605102539,
                5.5976738929748535
            ],
            "min" : [
                -6.245540618896484,
                -1,
                -6.852509021759033
            ],
            "type" : "VEC3"
        },
        {
            "bufferView" : 16,
            "componentType" : 5126,
            "count" : 312,
            "type" : "VEC3"
        },
        {
            "bufferView" : 17,
            "componentType" : 5126,
            "count" : 312,
            "type" : "VEC4"
        },
        {
            "bufferView" : 18,
            "componentType" : 5126,
            "count" : 312,
            "type" : "VEC2"
        },
        {
            "bufferView" : 19,
            "componentType" : 5123,
            "count" : 348,
            "type" : "SCALAR"
        },
        {
            "bufferView" : 20,
            "componentType" : 5126,
            "count" : 312,
            "max" : [
                8.451369285583496,
                26.586233139038086,
                6.807790279388428
            ],
            "min" : [
                -7.544373989105225,
                -1,
                -9.124807357788086
            ],
            "type" : "VEC3"
        },
        {
            "bufferView" : 21,
            "componentType" : 5126,
            "count" : 312,
            "type" : "VEC3"
        },
        {
            "bufferView" : 22,
            "componentType" : 5126,
            "count" : 312,
            "type" : "VEC4"
        },
        {
            "bufferView" : 23,
            "componentType" : 5126,
            "count" : 312,
            "type" : "VEC2"
        },
        {
            "bufferView" : 24,
            "componentType" : 5123,
            "count" : 348,
            "type" : "SCALAR"
        },
        {
            "bufferView" : 25,
            "componentType" : 5126,
            "count" : 1578,
            "max" : [
                7.676117897033691,
                24.185443878173828,
                10.928689956665039
            ],
            "min" : [
                -8.922504425048828,
                -1,
                -7.502145767211914
            ],
            "type" : "VEC3"
        },
        {
            "bufferView" : 26,
            "componentType" : 5126,
            "count" : 1578,
            "type" : "VEC3"
        },
        {
            "bufferView" : 27,
            "componentType" : 5126,
            "count" : 1578,
            "type" : "VEC4"
        },
        {
            "bufferView" : 28,
            "componentType" : 5126,
            "count" : 1578,
            "type" : "VEC2"
        },
        {
            "bufferView" : 29,
            "componentType" : 5123,
            "count" : 1644,
            "type" : "SCALAR"
        }
    ],
    "bufferViews" : [
        {
            "buffer" : 0,
            "byteLength" : 18144,
            "byteOffset" : 0
        },
        {
            "buffer" : 0,
            "byteLength" : 18144,
            "byteOffset" : 18144
        },
        {
            "buffer" : 0,
            "byteLength" : 24192,
            "byteOffset" : 36288
        },
        {
            "buffer" : 0,
            "byteLength" : 12096,
            "byteOffset" : 60480
        },
        {
            "buffer" : 0,
            "byteLength" : 3096,
            "byteOffset" : 72576
        },
        {
            "buffer" : 0,
            "byteLength" : 6720,
            "byteOffset" : 75672
        },
        {
            "buffer" : 0,
            "byteLength" : 6720,
            "byteOffset" : 82392
        },
        {
            "buffer" : 0,
            "byteLength" : 8960,
            "byteOffset" : 89112
        },
        {
            "buffer" : 0,
            "byteLength" : 4480,
            "byteOffset" : 98072
        },
        {
            "buffer" : 0,
            "byteLength" : 1320,
            "byteOffset" : 102552
        },
        {
            "buffer" : 0,
            "byteLength" : 3744,
            "byteOffset" : 103872
        },
        {
            "buffer" : 0,
            "byteLength" : 3744,
            "byteOffset" : 107616
        },
        {
            "buffer" : 0,
            "byteLength" : 4992,
            "byteOffset" : 111360
        },
        {
            "buffer" : 0,
            "byteLength" : 2496,
            "byteOffset" : 116352
        },
        {
            "buffer" : 0,
            "byteLength" : 936,
            "byteOffset" : 118848
        },
        {
            "buffer" : 0,
            "byteLength" : 3744,
            "byteOffset" : 119784
        },
        {
            "buffer" : 0,
            "byteLength" : 3744,
            "byteOffset" : 123528
        },
        {
            "buffer" : 0,
            "byteLength" : 4992,
            "byteOffset" : 127272
        },
        {
            "buffer" : 0,
            "byteLength" : 2496,
            "byteOffset" : 132264
        },
        {
            "buffer" : 0,
            "byteLength" : 696,
            "byteOffset" : 134760
        },
        {
            "buffer" : 0,
            "byteLength" : 3744,
            "byteOffset" : 135456
        },
        {
            "buffer" : 0,
            "byteLength" : 3744,
            "byteOffset" : 139200
        },
        {
            "buffer" : 0,
            "byteLength" : 4992,
            "byteOffset" : 142944
        },
        {
            "buffer" : 0,
            "byteLength" : 2496,
            "byteOffset" : 147936
        },
        {
            "buffer" : 0,
            "byteLength" : 696,
            "byteOffset" : 150432
        },
        {
            "buffer" : 0,
            "byteLength" : 18936,
            "byteOffset" : 151128
        },
        {
            "buffer" : 0,
            "byteLength" : 18936,
            "byteOffset" : 170064
        },
        {
            "buffer" : 0,
            "byteLength" : 25248,
            "byteOffset" : 189000
        },
        {
            "buffer" : 0,
            "byteLength" : 12624,
            "byteOffset" : 214248
        },
        {
            "buffer" : 0,
            "byteLength" : 3288,
            "byteOffset" : 226872
        }
    ],
    "buffers" : [
        {
            "byteLength" : 230160,
            "uri" : "trees.bin"
        }
    ]
}
