{
    "asset" : {
        "generator" : "Khronos glTF Blender I/O v1.5.17",
        "version" : "2.0"
    },
    "scene" : 0,
    "scenes" : [
        {
            "name" : "Scene",
            "nodes" : [
                0
            ]
        }
    ],
    "nodes" : [
        {
            "mesh" : 0,
            "name" : "Tree 6",
            "scale" : [
                0.2589496970176697,
                0.2589496970176697,
                0.2589496970176697
            ],
            "translation" : [
                0,
                -0.7864431738853455,
                -33.22203826904297
            ]
        }
    ],
    "materials" : [
        {
            "doubleSided" : true,
            "name" : "Colors",
            "pbrMetallicRoughness" : {}
        }
    ],
    "meshes" : [
        {
            "name" : "Cube.031",
            "primitives" : [
                {
                    "attributes" : {
                        "POSITION" : 0,
                        "NORMAL" : 1,
                        "TEXCOORD_0" : 2
                    },
                    "indices" : 3,
                    "material" : 0
                }
            ]
        }
    ],
    "accessors" : [
        {
            "bufferView" : 0,
            "componentType" : 5126,
            "count" : 1578,
            "max" : [
                7.676117897033691,
                24.185443878173828,
                10.928689956665039
            ],
            "min" : [
                -8.922504425048828,
                -1,
                -7.502145767211914
            ],
            "type" : "VEC3"
        },
        {
            "bufferView" : 1,
            "componentType" : 5126,
            "count" : 1578,
            "type" : "VEC3"
        },
        {
            "bufferView" : 2,
            "componentType" : 5126,
            "count" : 1578,
            "type" : "VEC2"
        },
        {
            "bufferView" : 3,
            "componentType" : 5123,
            "count" : 1644,
            "type" : "SCALAR"
        }
    ],
    "bufferViews" : [
        {
            "buffer" : 0,
            "byteLength" : 18936,
            "byteOffset" : 0
        },
        {
            "buffer" : 0,
            "byteLength" : 18936,
            "byteOffset" : 18936
        },
        {
            "buffer" : 0,
            "byteLength" : 12624,
            "byteOffset" : 37872
        },
        {
            "buffer" : 0,
            "byteLength" : 3288,
            "byteOffset" : 50496
        }
    ],
    "buffers" : [
        {
            "byteLength" : 53784,
            "uri" : "tree.bin"
        }
    ]
}
